ply
format ascii 1.0           
comment Exported triangulation
comment 
element vertex 50
property float x
property float y
property float z
element face 96
property list uchar int vertex_index
end_header
-0.15232980180446257 -0.16220726719541145 -0.9749279121818236
0.3753520910116181 0.029411427968535957 -0.9264155523727231
-0.3770026413373315 0.29283336256858744 -0.8787022420544115
0.09490173856736349 -0.5469328459522097 -0.8317800923534466
0.3321861816999708 0.5219388235645341 -0.7856412700104699
-0.6487595642967099 -0.1763505451641768 -0.7402779970753155
0.6394197996060046 -0.32736540540754255 -0.6956825506034864
-0.2664535016959791 0.7099983647837195 -0.6518472623539929
-0.29395417573577104 -0.7368831003605048 -0.6087645184885481
0.7411235855667839 0.3604116497799738 -0.5664267592721157
-0.8166420904017979 0.2401101067448453 -0.5248264787748049
0.45459099201735764 -0.7477522334782326 -0.48395622457510495
0.17131172541052703 0.8795943505693391 -0.44380859746445966
-0.7336738179253002 -0.5460792766569902 -0.4043762511531704
0.9262176262159744 -0.09175839351267571 -0.36565189197762754
-0.6324928594075747 0.7018635863572238 -0.3276282786088613
-0.004915885222244161 -0.9569236001447886 -0.2902982217624118
0.6548958277352485 0.7118783652258709 -0.2536545839095073
-0.9722006543052676 -0.08623705817026245 -0.21769027898955107
0.7826563725419576 -0.5951301310181474 -0.1823982721239083
-0.1790875569893157 0.9726721992910169 -0.1477715793309895
-0.5247976932405979 -0.843585323209366 -0.11380326724262686
0.959116242067955 0.2713263074484644 -0.08048645282173444
-0.8937354508573657 0.446038940342248 -0.047814303081251834
0.36091492732394814 -0.9324652303095929 -0.015780034804364174
0.36091492732395436 0.9324652303095906 0.015780034804364
-0.8937354508573657 -0.446038940342248 0.047814303081251834
0.9591162420679514 -0.2713263074484772 0.08048645282173426
-0.5247976932405859 0.8435853232093735 0.1138032672426267
-0.17908755698932954 -0.9726721992910143 0.14777157933098933
0.782656372541965 0.5951301310181376 0.1823982721239081
-0.9722006543052669 0.08623705817026935 0.21769027898955107
0.6548958277352435 -0.7118783652258756 0.2536545839095073
-0.004915885222240761 0.9569236001447886 0.2902982217624118
-0.6324928594075797 -0.7018635863572195 0.3276282786088613
0.926217626215975 0.09175839351266914 0.3656518919776274
-0.7336738179253002 0.5460792766569902 0.4043762511531704
0.17131172541052703 -0.8795943505693391 0.44380859746445966
0.4545909920173684 0.7477522334782262 0.48395622457510473
-0.8166420904018014 -0.2401101067448337 0.5248264787748046
0.7411235855667789 -0.3604116497799844 0.5664267592721156
-0.29395417573576066 0.7368831003605091 0.6087645184885478
-0.26645350169598925 -0.7099983647837159 0.6518472623539927
0.6394197996060069 0.327365405407538 0.6956825506034863
-0.6487595642967087 0.1763505451641814 0.7402779970753155
0.33218618169996705 -0.5219388235645365 0.7856412700104699
0.09490173856736349 0.5469328459522097 0.8317800923534466
-0.3770026413373315 -0.29283336256858744 0.8787022420544115
0.3753520910116181 -0.029411427968535957 0.9264155523727231
-0.15232980180446118 0.16220726719541453 0.9749279121818233
3 0 1 2
3 0 1 3
3 0 2 5
3 0 3 8
3 0 5 8
3 1 2 4
3 1 3 6
3 1 4 9
3 1 6 9
3 2 4 7
3 2 5 10
3 2 7 10
3 3 6 11
3 3 8 16
3 3 11 16
3 4 7 12
3 4 9 17
3 4 12 17
3 5 8 13
3 5 10 18
3 5 13 18
3 6 9 14
3 6 11 19
3 6 14 19
3 7 10 15
3 7 12 20
3 7 15 20
3 8 13 21
3 8 16 21
3 9 14 22
3 9 17 22
3 10 15 23
3 10 18 23
3 11 16 24
3 11 19 24
3 12 17 25
3 12 20 25
3 13 18 26
3 13 21 26
3 14 19 27
3 14 22 27
3 15 20 28
3 15 23 28
3 16 21 29
3 16 24 29
3 17 22 30
3 17 25 30
3 18 23 31
3 18 26 31
3 19 24 32
3 19 27 32
3 20 25 33
3 20 28 33
3 21 26 34
3 21 29 34
3 22 27 35
3 22 30 35
3 23 28 36
3 23 31 36
3 24 29 37
3 24 32 37
3 25 30 38
3 25 33 38
3 26 31 39
3 26 34 39
3 27 32 40
3 27 35 40
3 28 33 41
3 28 36 41
3 29 34 42
3 29 37 42
3 30 35 43
3 30 38 43
3 31 36 44
3 31 39 44
3 32 37 45
3 32 40 45
3 33 38 46
3 33 41 46
3 34 39 42
3 35 40 43
3 36 41 44
3 37 42 45
3 38 43 46
3 39 42 47
3 39 44 47
3 40 43 48
3 40 45 48
3 41 44 49
3 41 46 49
3 42 45 47
3 43 46 48
3 44 47 49
3 45 47 48
3 46 48 49
3 47 48 49
