ply
format ascii 1.0           
comment Exported triangulation
comment 
element vertex 50
property float x
property float y
property float z
element face 96
property list uchar int vertex_index
end_header
0.2225209339563144 0.0 0.9749279121818236
-0.11126046697815714 0.1927087816800076 0.9749279121818236
0.6234898018587335 0.0 0.7818314824680298
0.4408738668949674 0.4408738668949674 0.7818314824680298
3.8177739507365774e-17 0.6234898018587335 0.7818314824680298
-0.44087386689496727 0.4408738668949674 0.7818314824680298
-0.6234898018587335 7.635547901473155e-17 0.7818314824680298
-0.44087386689496744 -0.44087386689496727 0.7818314824680298
-1.1453321852209732e-16 -0.6234898018587335 0.7818314824680298
0.9009688679024191 0.0 0.4338837391175582
0.7579432430938199 0.48710054524480817 0.4338837391175582
0.37427599397397837 0.819550109062379 0.4338837391175582
-0.12822123872479746 0.8917983039170042 0.4338837391175582
-0.5900091340964307 0.6809068384236913 0.4338837391175582
-0.8644732981977794 0.2538322627886768 0.4338837391175582
-0.8644732981977795 -0.2538322627886766 0.4338837391175582
-0.590009134096431 -0.6809068384236912 0.4338837391175582
-0.12822123872479765 -0.8917983039170041 0.4338837391175582
0.374275993973978 -0.8195501090623791 0.4338837391175582
1.0 0.0 6.123233995736766e-17
0.8854560256532099 0.4647231720437685 6.123233995736766e-17
0.5680647467311559 0.8229838658936564 6.123233995736766e-17
0.120536680255323 0.992708874098054 6.123233995736766e-17
-0.35460488704253545 0.9350162426854148 6.123233995736766e-17
-0.7485107481711012 0.6631226582407952 6.123233995736766e-17
-0.970941817426052 0.23931566428755768 6.123233995736766e-17
-0.9709418174260521 -0.23931566428755743 6.123233995736766e-17
-0.7485107481711013 -0.663122658240795 6.123233995736766e-17
-0.3546048870425359 -0.9350162426854147 6.123233995736766e-17
0.1205366802553232 -0.992708874098054 6.123233995736766e-17
0.5680647467311548 -0.822983865893657 6.123233995736766e-17
0.9009688679024191 0.0 -0.43388373911755806
0.7579432430938199 0.48710054524480817 -0.43388373911755806
0.37427599397397837 0.819550109062379 -0.43388373911755806
-0.12822123872479746 0.8917983039170042 -0.43388373911755806
-0.5900091340964307 0.6809068384236913 -0.43388373911755806
-0.8644732981977794 0.2538322627886768 -0.43388373911755806
-0.8644732981977795 -0.2538322627886766 -0.43388373911755806
-0.590009134096431 -0.6809068384236912 -0.43388373911755806
-0.12822123872479765 -0.8917983039170041 -0.43388373911755806
0.374275993973978 -0.8195501090623791 -0.43388373911755806
0.6234898018587339 0.0 -0.7818314824680295
0.44087386689496766 0.44087386689496766 -0.7818314824680295
3.81777395073658e-17 0.6234898018587339 -0.7818314824680295
-0.4408738668949676 0.44087386689496766 -0.7818314824680295
-0.6234898018587339 7.63554790147316e-17 -0.7818314824680295
-0.44087386689496777 -0.4408738668949676 -0.7818314824680295
-1.145332185220974e-16 -0.6234898018587339 -0.7818314824680295
0.2225209339563141 0.0 -0.9749279121818237
-0.11126046697815699 0.19270878168000732 -0.9749279121818237
3 0 1 3
3 0 1 7
3 0 2 3
3 0 2 8
3 0 7 8
3 1 3 4
3 1 4 5
3 1 5 6
3 1 6 7
3 2 3 10
3 2 8 18
3 2 9 10
3 2 9 18
3 3 4 11
3 3 10 11
3 4 5 12
3 4 11 12
3 5 6 14
3 5 12 13
3 5 13 14
3 6 7 15
3 6 14 15
3 7 8 17
3 7 15 16
3 7 16 17
3 8 17 18
3 9 10 20
3 9 18 30
3 9 19 20
3 9 19 30
3 10 11 21
3 10 20 21
3 11 12 22
3 11 21 22
3 12 13 23
3 12 22 23
3 13 14 24
3 13 23 24
3 14 15 25
3 14 24 25
3 15 16 27
3 15 25 26
3 15 26 27
3 16 17 28
3 16 27 28
3 17 18 29
3 17 28 29
3 18 29 30
3 19 20 31
3 19 30 31
3 20 21 32
3 20 31 32
3 21 22 33
3 21 32 33
3 22 23 34
3 22 33 34
3 23 24 35
3 23 34 35
3 24 25 36
3 24 35 36
3 25 26 37
3 25 36 37
3 26 27 37
3 27 28 38
3 27 37 38
3 28 29 39
3 28 38 39
3 29 30 40
3 29 39 40
3 30 31 40
3 31 32 41
3 31 40 41
3 32 33 42
3 32 41 42
3 33 34 43
3 33 42 43
3 34 35 44
3 34 43 44
3 35 36 44
3 36 37 45
3 36 44 45
3 37 38 46
3 37 45 46
3 38 39 46
3 39 40 47
3 39 46 47
3 40 41 47
3 41 42 48
3 41 47 48
3 42 43 49
3 42 48 49
3 43 44 49
3 44 45 49
3 45 46 49
3 46 47 48
3 46 48 49
