ply
format ascii 1.0           
comment Exported triangulation
comment 
element vertex 54
property float x
property float y
property float z
element face 102
property list uchar int vertex_index
end_header
0.0740328 -0.0669765 -0.995004
-0.0424728 -0.0903481 -0.995004
0.49942 -0.26344 -0.825336
0.520044 0.219943 -0.825336
0.158841 0.54184 -0.825336
-0.318986 0.465907 -0.825336
-0.562607 0.0478954 -0.825336
-0.393151 -0.405282 -0.825336
0.0649644 -0.560893 -0.825336
0.475382 -0.304685 -0.825336
0.866629 -0.207856 -0.453596
0.844371 0.28511 -0.453596
0.563236 0.690663 -0.453596
0.109417 0.884465 -0.453596
-0.377948 0.807097 -0.453596
-0.749438 0.482279 -0.453596
-0.891156 0.00959889 -0.453596
-0.759652 -0.466025 -0.453596
-0.395246 -0.798769 -0.453596
0.0903402 -0.886617 -0.453596
0.548228 -0.702635 -0.453596
0.838034 -0.303231 -0.453596
0.999467 0.0145951 0.0291995
0.870013 0.492164 0.0291995
0.527371 0.849133 0.0291995
0.0555024 0.998031 0.0291995
-0.429966 0.902373 0.0291995
-0.810076 0.585597 0.0291995
-0.991686 0.125327 0.0291995
-0.930293 -0.365653 0.0291995
-0.640942 -0.767034 0.0291995
-0.194535 -0.980461 0.0291995
0.299541 -0.953636 0.0291995
0.720218 -0.693133 0.0291995
0.964412 -0.262785 0.0291995
0.833167 0.225751 0.504846
0.57369 0.644988 0.504846
0.127056 0.853807 0.504846
-0.361029 0.784085 0.504846
-0.731333 0.458566 0.504846
-0.863051 -0.0165536 0.504846
-0.713211 -0.486272 0.504846
-0.330696 -0.797352 0.504846
0.159703 -0.848307 0.504846
0.598002 -0.622515 0.504846
0.841211 -0.193636 0.504846
0.448738 0.253724 0.856889
0.0444146 0.513584 0.856889
-0.398518 0.326994 0.856889
-0.495025 -0.143847 0.856889
-0.161214 -0.489644 0.856889
0.312737 -0.409801 0.856889
0.514831 0.0262759 0.856889
0.030007 0.0287842 0.999135
3 0 1 4
3 0 1 7
3 0 2 3
3 0 2 8
3 0 3 4
3 0 7 8
3 1 4 5
3 1 5 6
3 1 6 7
3 2 3 11
3 2 8 9
3 2 9 10
3 2 10 11
3 3 4 13
3 3 11 12
3 3 12 13
3 4 5 14
3 4 13 14
3 5 6 16
3 5 14 15
3 5 15 16
3 6 7 17
3 6 16 17
3 7 8 19
3 7 17 18
3 7 18 19
3 8 9 20
3 8 19 20
3 9 10 21
3 9 20 33
3 9 21 33
3 10 11 22
3 10 21 22
3 11 12 23
3 11 22 23
3 12 13 24
3 12 23 24
3 13 14 26
3 13 24 25
3 13 25 26
3 14 15 27
3 14 26 27
3 15 16 28
3 15 27 28
3 16 17 29
3 16 28 29
3 17 18 30
3 17 29 30
3 18 19 31
3 18 30 31
3 19 20 32
3 19 31 32
3 20 32 33
3 21 22 34
3 21 33 44
3 21 34 44
3 22 23 35
3 22 34 35
3 23 24 36
3 23 35 36
3 24 25 37
3 24 36 37
3 25 26 37
3 26 27 38
3 26 37 38
3 27 28 39
3 27 38 39
3 28 29 40
3 28 39 40
3 29 30 41
3 29 40 41
3 30 31 42
3 30 41 42
3 31 32 43
3 31 42 43
3 32 33 43
3 33 43 44
3 34 35 45
3 34 44 51
3 34 45 51
3 35 36 46
3 35 45 46
3 36 37 46
3 37 38 47
3 37 46 47
3 38 39 47
3 39 40 48
3 39 47 48
3 40 41 49
3 40 48 49
3 41 42 49
3 42 43 50
3 42 49 50
3 43 44 50
3 44 50 51
3 45 46 52
3 45 51 52
3 46 47 52
3 47 48 52
3 48 49 52
3 49 50 52
3 50 51 52
